<svg width="93" height="94" viewBox="0 0 93 94" fill="none" xmlns="http://www.w3.org/2000/svg">
<circle cx="46.5" cy="46.5" r="46.5" fill="white"/>
<path d="M27.6562 75V18.2727H52.142C56.3523 18.2727 60.0362 19.1037 63.1939 20.7656C66.3516 22.4276 68.8075 24.7635 70.5618 27.7734C72.3161 30.7834 73.1932 34.3011 73.1932 38.3267C73.1932 42.3892 72.2884 45.907 70.4787 48.88C68.6875 51.853 66.1669 54.1428 62.9169 55.7493C59.6854 57.3558 55.9091 58.1591 51.5881 58.1591H36.9631V46.1932H48.4858C50.2955 46.1932 51.8374 45.8793 53.1115 45.2514C54.4041 44.6051 55.392 43.6911 56.0753 42.5092C56.777 41.3274 57.1278 39.9332 57.1278 38.3267C57.1278 36.7017 56.777 35.3168 56.0753 34.1719C55.392 33.0085 54.4041 32.1222 53.1115 31.5128C51.8374 30.8849 50.2955 30.571 48.4858 30.571H43.0568V75H27.6562Z" fill="#1E40AF"/>
</svg>
